<?xml version="1.0" encoding="UTF-8" standalone="no"?>
<svg
   width="100"
   height="100"
   viewBox="0 0 100 100"
   fill="none"
   version="1.1"
   id="svg21"
   sodipodi:docname="collaborators.svg"
   xmlns:inkscape="http://www.inkscape.org/namespaces/inkscape"
   xmlns:sodipodi="http://sodipodi.sourceforge.net/DTD/sodipodi-0.dtd"
   xmlns="http://www.w3.org/2000/svg"
   xmlns:svg="http://www.w3.org/2000/svg">
  <sodipodi:namedview
     id="namedview23"
     pagecolor="#505050"
     bordercolor="#ffffff"
     borderopacity="1"
     inkscape:showpageshadow="0"
     inkscape:pageopacity="0"
     inkscape:pagecheckerboard="1"
     inkscape:deskcolor="#505050"
     showgrid="false"
     showguides="true" />
  <g
     clip-path="url(#clip0_4019_235)"
     id="g14"
     transform="matrix(0.72526654,0,0,0.72526654,3.5829454,4.581149)"
     style="stroke-width:1.3788"
     inkscape:export-filename="g14.svg"
     inkscape:export-xdpi="96"
     inkscape:export-ydpi="96">
    <path
       d="m 64.0822,47.5678 c 7.0491,0 12.7635,-5.7144 12.7635,-12.7634 0,-7.0491 -5.7144,-12.7634 -12.7635,-12.7634 -7.049,0 -12.7634,5.7143 -12.7634,12.7634 0,7.049 5.7144,12.7634 12.7634,12.7634 z"
       stroke="#b7b7b7"
       stroke-width="5.51522"
       stroke-linejoin="round"
       id="path2" />
    <path
       d="m 37.0903,80.6131 c 0.6835,-6.8438 3.8814,-13.1908 8.9748,-17.8127 5.0934,-4.622 11.7202,-7.1903 18.5981,-7.208 6.8779,-0.0177 13.5178,2.5165 18.6349,7.1122 5.1171,4.5957 8.3477,10.9261 9.0664,17.7663"
       stroke="#b7b7b7"
       stroke-width="5.51522"
       stroke-linejoin="round"
       id="path4" />
    <path
       d="m 32.4818,70.1271 c 7.049,0 12.7634,-5.7144 12.7634,-12.7634 0,-7.049 -5.7144,-12.7634 -12.7634,-12.7634 -7.049,0 -12.7634,5.7144 -12.7634,12.7634 0,7.049 5.7144,12.7634 12.7634,12.7634 z"
       stroke="#ffffff"
       stroke-width="6.89402"
       stroke-linejoin="round"
       id="path6" />
    <path
       d="m 96.48,70.1175 c 7.049,0 12.763,-5.7143 12.763,-12.7634 0,-7.049 -5.714,-12.7634 -12.763,-12.7634 -7.0491,0 -12.7634,5.7144 -12.7634,12.7634 0,7.0491 5.7143,12.7634 12.7634,12.7634 z"
       stroke="#ffffff"
       stroke-width="6.89402"
       stroke-linejoin="round"
       id="path8" />
    <path
       d="m 69.3505,105.924 c 0,-4.879 1.2847,-9.6715 3.725,-13.8961 2.4402,-4.2246 5.95,-7.7321 10.1761,-10.1697 4.2261,-2.4375 9.0197,-3.7192 13.8984,-3.7161 4.879,0.0031 9.671,1.2909 13.894,3.7338 4.223,2.4429 7.728,5.9549 10.163,10.1825 2.435,4.2277 3.714,9.0216 3.707,13.9006"
       stroke="#ffffff"
       stroke-width="6.89402"
       stroke-linejoin="round"
       id="path10" />
    <path
       d="m 58.6495,105.924 c 0,-4.879 -1.2847,-9.6715 -3.725,-13.8961 C 52.4843,87.8033 48.9746,84.2958 44.7484,81.8582 40.5223,79.4207 35.7288,78.139 30.85,78.1421 25.9713,78.1452 21.1794,79.433 16.9563,81.8759 12.7333,84.3188 9.22798,87.8308 6.79306,92.0584 4.35814,96.2861 3.07944,101.08 3.0856,105.959"
       stroke="#ffffff"
       stroke-width="6.89402"
       stroke-linejoin="round"
       id="path12" />
  </g>
  <defs
     id="defs19">
    <clipPath
       id="clip0_4019_235">
      <rect
         width="128"
         height="128"
         fill="#ffffff"
         id="rect16"
         x="0"
         y="0" />
    </clipPath>
  </defs>
  <rect
     style="fill:#ffffff;fill-opacity:0;stroke-width:11.3386;stroke-linecap:round;stroke-linejoin:round"
     id="rect304"
     width="100"
     height="100"
     x="0"
     y="0" />
</svg>
