<?xml version="1.0" encoding="UTF-8" standalone="no"?>
<!-- Created with Inkscape (http://www.inkscape.org/) -->

<svg
   width="100mm"
   height="100mm"
   viewBox="0 0 100 100"
   version="1.1"
   id="svg5"
   inkscape:version="1.2.1 (9c6d41e410, 2022-07-14)"
   sodipodi:docname="images.svg"
   inkscape:export-filename="icones\icon3.png"
   inkscape:export-xdpi="25.4"
   inkscape:export-ydpi="25.4"
   xml:space="preserve"
   xmlns:inkscape="http://www.inkscape.org/namespaces/inkscape"
   xmlns:sodipodi="http://sodipodi.sourceforge.net/DTD/sodipodi-0.dtd"
   xmlns="http://www.w3.org/2000/svg"
   xmlns:svg="http://www.w3.org/2000/svg"><sodipodi:namedview
     id="namedview7"
     pagecolor="#505050"
     bordercolor="#ffffff"
     borderopacity="1"
     inkscape:showpageshadow="0"
     inkscape:pageopacity="0"
     inkscape:pagecheckerboard="1"
     inkscape:deskcolor="#505050"
     inkscape:document-units="mm"
     showgrid="false"
     inkscape:zoom="0.2762235"
     inkscape:cx="5280.1445"
     inkscape:cy="-2686.2305"
     inkscape:window-width="1920"
     inkscape:window-height="1057"
     inkscape:window-x="-8"
     inkscape:window-y="-8"
     inkscape:window-maximized="1"
     inkscape:current-layer="layer1"
     showguides="true"><sodipodi:guide
       position="-273.78149,-1269.9422"
       orientation="0,-1"
       id="guide561"
       inkscape:locked="false" /></sodipodi:namedview><defs
     id="defs2" /><g
     inkscape:label="Calque 1"
     inkscape:groupmode="layer"
     id="layer1"
     transform="translate(-1397.7758,835.20676)"><rect
       style="fill:#ffffff;fill-opacity:0;stroke-width:2.5;stroke-linecap:round;stroke-linejoin:round"
       id="rect1072"
       width="100"
       height="100"
       x="1397.7758"
       y="-835.20679"
       inkscape:export-filename="..\..\..\JavaScript\afk-simulator-site\public\images\icons\download.svg"
       inkscape:export-xdpi="25.4"
       inkscape:export-ydpi="25.4" /><g
       id="g12235"
       transform="matrix(0.7752761,0,0,0.7752761,313.05828,-275.38168)"
       style="stroke-width:1.28986"><path
         style="fill:#ffffff;fill-opacity:1;stroke:none;stroke-width:3.86959;stroke-linecap:round;stroke-linejoin:round;stroke-dasharray:none;stroke-opacity:1"
         d="m 1514.855,-657.03734 c -1.9874,-0.91107 -2.4738,-1.93379 -3.366,-7.07689 -1.8712,-10.78682 -6.549,-19.68365 -14.1973,-27.00237 -9.5897,-9.17636 -20.3791,-13.56598 -33.4428,-13.60596 -6.1428,-0.0188 -9.9294,0.56431 -15.568,2.39734 -7.4266,2.4143 -14.4174,6.9107 -19.9653,12.84147 -3.4474,3.68522 -3.2046,3.97701 2.115,2.54162 8.8207,-2.38009 10.5425,-2.28143 12.3913,0.71 0.7921,1.28167 0.9676,2.12718 0.7612,3.66665 -0.4206,3.13584 -1.6842,3.81519 -11.3144,6.08296 -4.6257,1.08929 -9.9753,2.3957 -11.888,2.90309 -4.7632,1.26357 -6.8921,1.20253 -8.6147,-0.24699 -1.2217,-1.02799 -1.6099,-2.08561 -3.2078,-8.74046 -0.9998,-4.16404 -2.3306,-9.5881 -2.9572,-12.05349 -1.91,-7.51432 -1.3233,-10.31544 2.419,-11.55054 1.9842,-0.65482 4.5883,0.2499 5.7118,1.98437 0.7468,1.15287 2.7031,8.07231 2.7031,9.5608 0,0.46167 0.1769,0.94874 0.3931,1.08236 0.2162,0.13364 2.533,-1.85124 5.1485,-4.41085 9.4614,-9.25927 20.0696,-14.52567 33.4911,-16.62641 11.2621,-1.76276 24.3463,0.63775 35.6984,6.54947 11.3366,5.90365 19.9723,14.70054 25.5581,26.03513 3.5931,7.29118 6.3757,17.86795 5.6709,21.55507 -0.5364,2.80565 -4.7225,4.6953 -7.54,3.40363 z"
         id="path12229" /><path
         style="fill:#ffffff;fill-opacity:1;stroke:none;stroke-width:3.86959;stroke-linecap:round;stroke-linejoin:round;stroke-dasharray:none;stroke-opacity:1"
         d="m 1455.4676,-600.36602 c -7.6389,-1.03048 -16.4722,-4.27832 -23.5772,-8.669 -5.7726,-3.56722 -13.9925,-11.70167 -17.7884,-17.60341 -5.1338,-7.98172 -9.0266,-18.79505 -9.2901,-25.80553 -0.1036,-2.75879 -0.01,-3.05057 1.4549,-4.51691 1.3008,-1.30228 1.9271,-1.56761 3.7008,-1.56761 3.4435,0 4.4203,1.35806 5.7757,8.02947 2.0115,9.90074 5.8072,17.55526 12.0591,24.31899 12.2602,13.26399 30.3595,18.59788 47.7803,14.081 5.3899,-1.39751 12.1922,-4.53076 16.0782,-7.40585 3.2106,-2.3754 9.5446,-8.60499 9.5446,-9.38726 0,-0.59454 -1.5111,-0.32985 -8.3622,1.46476 -1.57,0.41127 -3.6422,0.74774 -4.605,0.74774 -3.4368,0 -5.8779,-3.53674 -4.7662,-6.90525 0.891,-2.69981 1.6287,-3.01218 13.6624,-5.78504 4.2146,-0.97115 9.2344,-2.1907 11.155,-2.71013 3.9216,-1.06055 5.8816,-0.76094 7.628,1.16615 1.1035,1.21764 6.2824,21.66028 6.7,26.44696 0.2316,2.6547 0.1512,2.97302 -1.0558,4.17901 -1.72,1.71866 -4.1669,2.16845 -6.2897,1.15615 -1.922,-0.91654 -2.1807,-1.4443 -3.774,-7.6995 -0.6666,-2.61745 -1.3183,-4.86519 -1.4481,-4.99499 -0.1298,-0.12978 -1.909,1.4919 -3.9539,3.60375 -8.4905,8.76875 -19.7413,15.01693 -30.9581,17.19258 -4.7534,0.92202 -15.1545,1.27307 -19.6703,0.66392 z"
         id="path12231" /></g></g></svg>
